 http://img703.imageshack.us/img703/3844/bereavement2010.jpg

Country.......: USA
Genre.........: Horror, Thriller, Crime
Date release..: 16.07.2010 [World]
Director......: Stevan Mena
Writers.......: Stevan Mena
Duration......: 107 min.
More..........: http://www.imdb.com/title/tt1100051
Trailer.......: http://www.imdb.com/video/imdb/vi2930415641
Trailer.......:

Pilot :
The horrific account of 6 year old Martin Bristol, abducted from his backyard swing and forced to witness the brutal crimes of a deranged madman. 

Cats :
Alexandra Daddario   	 ...  	Allison
Michael Biehn 	... 	Jonathan Miller
Peyton List 	... 	Wendy
John Savage 	... 	Ted
Nolan Gerard Funk 	... 	William
Spencer List 	... 	Martin
Valentina de Angelis 	... 	Melissa
Matthew Mindler 	... 	Boy Playing Soccer
Brett Rickaby 	... 	Graham Sutter
Kathryn Meisle 	... 	Karen
Ashley Wolfe 	... 	Katherine
Andrea Havens 	... 	Agatha
Greg Wood 	... 	Teacher
Jamie Farrell 	... 	Nurse s Aide
Jonathan Walker 	... 	Doctor

Data Technical :
!!! SAMPLE !!!
Audio.....: English
Subtitles.: Spanish .srt, Czech .srt, English .srt
Format                           : AVI
Format/Info                      : Audio Video Interleave
File size                        : 1.30 GiB
Duration                         : 1h 47mn
Overall bit rate                 : 1 727 Kbps
Video
ID                               : 0
Format                           : MPEG-4 Visual
Format profile                   : Advanced Simple@L5
Format settings, BVOP            : Yes
Format settings, QPel            : No
Format settings, GMC             : No warppoints
Format settings, Matrix          : Default (H.263)
Muxing mode                      : Packed bitstream
Codec ID                         : XVID
Codec ID/Hint                    : XviD
Duration                         : 1h 47mn
Bit rate                         : 1 335 Kbps
Width                            : 720 pixels
Height                           : 304 pixels
Display aspect ratio             : 2.35:1
Frame rate                       : 23.976 fps
Color space                      : YUV
Chroma subsampling               : 4:2:0
Bit depth                        : 8 bits
Scan type                        : Progressive
Bits/(Pixel*Frame)               : 0.254
Stream size                      : 1.00 GiB (77%)
Writing library                  : XviD 64
Audio
ID                               : 1
Format                           : AC-3
Format/Info                      : Audio Coding 3
Mode extension                   : CM (complete main)
Codec ID                         : 2000
Duration                         : 1h 47mn
Bit rate mode                    : Constant
Bit rate                         : 384 Kbps
Channel(s)                       : 6 channels
Channel positions                : Front: L C R, Side: L R, LFE
Sampling rate                    : 48.0 KHz
Bit depth                        : 16 bits
Stream size                      : 295 MiB (22%)
Alignment                        : Aligned on interleaves
Interleave, duration             : 64 ms (1.53 video frames)
Interleave, preload duration     : 192 ms

Screen : 
http://img8.imageshack.us/img8/4994/bereavement2010s1.jpg 
http://img571.imageshack.us/img571/4042/bereavement2010s2.jpg 
http://img854.imageshack.us/img854/9055/bereavement2010s3.jpg 
http://img268.imageshack.us/img268/376/bereavement2010s4.jpg 
http://img33.imageshack.us/img33/1481/bereavement2010s5.jpg